<svg id="visual" viewBox="0 0 900 600" width="900" height="600" xmlns="http://www.w3.org/2000/svg" xmlns:xlink="http://www.w3.org/1999/xlink" version="1.1"><rect x="0" y="0" width="900" height="600" fill="#f3f0f0"></rect><path d="M0 307L129 249L257 311L386 301L514 301L643 237L771 219L900 299L900 0L771 0L643 0L514 0L386 0L257 0L129 0L0 0Z" fill="#d3d3d2"></path><path d="M0 190L129 202L257 210L386 268L514 233L643 252L771 250L900 250L900 0L771 0L643 0L514 0L386 0L257 0L129 0L0 0Z" fill="#cccbc9"></path><path d="M0 177L129 135L257 183L386 152L514 115L643 185L771 114L900 100L900 0L771 0L643 0L514 0L386 0L257 0L129 0L0 0Z" fill="#c6c3c0"></path><path d="M0 102L129 78L257 85L386 42L514 48L643 62L771 81L900 119L900 0L771 0L643 0L514 0L386 0L257 0L129 0L0 0Z" fill="#c1bab9"></path></svg>